<?xml version="1.0" encoding="UTF-8"?>
<svg id="Layer_2_copy" data-name="Layer 2 copy" xmlns="http://www.w3.org/2000/svg" viewBox="0 0 98.17 62.66">
  <defs>
    <style>
      .cls-1 {
        fill: #ad8449;
      }
    </style>
  </defs>
  <g id="TBFF_Gold" data-name="TBFF Gold">
    <path class="cls-1" d="M69.32,23.72c-6.56,1.56-10.82,1.4-11.05,1.38h-.07c-.91.56-2.97,1.16-1.75,2.1,0,0,2.58,1.21,8.04.1,5.46-1.11,6.8-2.48,11.05-.57,0,0-.15-.9-.38-2.35l-.03-.03c-.32-.36-1.54-1.26-5.81-.63Z"/>
    <path class="cls-1" d="M38.53,16.16s.01.08.01.12c.02.17.03.26.03.26.4.04,1.04,0,1.77-.08.14-.02.29-.04.45-.05,1.77-.24,3.77-.65,3.77-.65.41-.08,1.05-.25,1.84-.45.32-.08.66-.16,1.02-.24.73-.16,1.52-.32,2.35-.46.46-.06.93-.13,1.4-.17.13-.01.25-.02.38-.03.09-.01.18-.01.27-.02.03,0,.06,0,.1-.01.12,0,.23,0,.35,0,.03,0,.05,0,.08,0-.39,0-.79.03-1.18.07.4-.04.79-.06,1.18-.07.08,0,.15,0,.23,0,0,0,0,0,0,0,.22,0,.43,0,.65,0-.16,0-.34,0-.52,0,.03,0,.06,0,.09,0h.15c.1,0,.19.01.28.01h.06c.34,0,.68.01,1.01.05.15.01.3.04.45.06.01,0,.02.01.03.01.16.06.32.1.46.16h0s.21.06.52.19c1.18.47,1.72.92,1.97,1.25.04.05.08.1.11.15t.01.02s.02.03.02.05c.09.17.08.27.08.27v.68s-1.08-1.99-4.05-2.18c-2.15-.3-7.67,1.17-10.76,1.79-2.94.59-4.51.36-4.66.33-.02.14-.03.27-.04.38-.08,1.82-.2,6.79.12,8.58,0,0,3.99.92,16.95-2.24,2.06-.41,2.75-.15,3,.35h.4s3.46-.03,6.63-.77c3.14-.74,7.32-1.27,9.43-.22h.02c-.12-.75-.25-1.6-.39-2.53,0,0-1.84-.95-5.55-.43-2.68.44-4.94,1.03-6.62,1.25-1.68.23-3.88.01-3.88.01l-.03-.76s2.67.37,6.25-.49c3.57-.87,6.93-1.58,9.58-.72l.1.06c-.12-.83-.25-1.7-.37-2.6,0,0-.24-.14-.41-.17-.06-.02-.24-.05-.26-.06-.08-.03-3.19-.47-5.58.06-2.39.53-4.86,1.12-5.83,1.24-.98.11-3.5.17-3.97.01-.02,0-.06-.7-.06-.7,0,0,1.42.18,4.15-.28,2.73-.46,5.25-1.27,6.79-1.41,1.54-.14,2.99-.28,4.89.2l.14.05c-.11-.8-.21-1.61-.31-2.42,0,0-.07-.07-.11-.1-.05-.03-1.2-.62-3.14-.47-1.94.15-4.19.47-6.5,1.09-2.31.61-4.64.8-6.13.68v-.67s2.22.09,4.38-.42c2.16-.51,4.68-1.32,6.57-1.43,1.9-.11,3.78-.16,4.8.22-.1-.85-.19-1.67-.27-2.47l.02.24-.06-.07s-.71-.68-3.1-.63c-2.4.05-5.01.74-7.37,1.29-2.35.55-4.5.46-5.37.35.05.01-.03-.75-.03-.75,0,0,2.29,0,2.97-.08.67-.08,3.12-.7,4.06-.94.95-.23,5.82-1.7,8.79-.27l.09.86c-.11-1.11-.2-2.17-.25-3.11,0,0-1.34-1.01-4.36-.93-3.01.07-6.33,1.08-6.49,1.13-.15.04-3.63.66-5.06.5l-.03-.49s1.94.09,5.32-.68c3.38-.78,7.52-1.78,10.58-.4-.04-1.01-.04-1.85.03-2.46,0,0-.86-1.71-6.19-.76-5.33.94-7.49,1.68-9.99,1.36-.51-3.59-7.29-3.12-7.39-3.12l-.11-.04-.04.05c-5.66.14-13.07,2.37-13.07,2.37,1.5,6.2,2.18,11.3,2.35,12.72ZM58.66,22.44l-.02.86s-.25-1.04-1.79-1.49c-.64-.16-1.77-.34-2.88-.21-1.53.17-5.31.9-7.19,1.32-1.85.41-6.73.84-8.38.66l-.03-.82c.42.03,2.95.17,6.07-.3,3.13-.47,5.98-1,8.1-1.37,1.95-.34,3.43-.48,4.68.11.58.23,1.23.63,1.44,1.24ZM58.32,19.43l.08.67s-.42-.65-1.89-1.29c-.42-.16-1.64-.51-3.38-.42-2.05.11-5.66,1.17-7.84,1.5-2.18.34-6.21.49-6.89.38v-.89s.04.01.07.01c.45.04,4.2.07,6.52-.26,2.32-.33,6.22-1.64,7.6-1.64,1.16,0,2.93-.02,4.13.56.01,0,1.5.78,1.6,1.38ZM47.35,5.09l.21-.51.28.48.55.04-.37.42.13.53-.51-.22-.47.29.06-.55-.42-.36.54-.12ZM53.79,11.7l-.49-.26-.49.24.1-.54-.38-.39.54-.07.26-.49.23.5.55.09-.41.38.09.54ZM53.26,8.34l.08.54-.48-.26-.5.24.11-.54-.39-.39.55-.07.25-.49.24.5.54.09-.4.38ZM52.06,10.31l-.49-.26-.49.24.1-.54-.39-.39.55-.07.26-.49.23.5.55.09-.41.38.09.54ZM51.1,11.68l-.5-.24-.48.27.08-.55-.41-.38.55-.09.23-.5.26.49.55.06-.39.4.11.54ZM49.76,10.35l-.49-.25-.49.27.09-.55-.4-.38.54-.09.24-.5.25.5.55.07-.39.39.1.54ZM48.41,11.8l-.49-.25-.49.26.09-.54-.4-.38.54-.09.24-.5.25.49.55.08-.39.39.1.54ZM48.96,14.39l-.51-.21-.47.29.05-.55-.43-.34.54-.13.19-.52.29.47.55.03-.36.42.15.54ZM45.81,9.54l.55-.1.21-.51.27.48.55.05-.37.41.12.54-.5-.23-.48.28.07-.55-.42-.37ZM45.9,11.99l-.51-.22-.47.3.05-.55-.43-.35.53-.12.2-.52.29.47.55.03-.36.42.15.54ZM44.17,10.73l-.51-.21-.46.3.04-.55-.43-.35.54-.13.2-.51.29.47.55.03-.36.42.14.53ZM43.05,12.48l-.52-.19-.45.33.02-.56-.44-.32.53-.16.17-.52.31.45h.55s-.34.44-.34.44l.17.53ZM44.18,8.24l.54-.13.2-.51.29.47.55.03-.36.42.14.53-.51-.21-.46.3.04-.55-.43-.35ZM48.35,8.82l-.51-.24-.47.29.06-.55-.41-.37.54-.11.22-.5.27.48.55.05-.37.41.12.54ZM51.93,7.46l-.49-.27-.49.25.11-.55-.39-.39.55-.07.25-.49.23.5.55.09-.4.38.08.55ZM51.03,7.85l-.4.38.08.55-.48-.27-.5.25.11-.55-.39-.39.55-.07.25-.49.23.5.55.09ZM53.25,6.3l-.47-.29-.51.21.14-.53-.36-.42.55-.03.28-.48.21.51.53.13-.42.35.05.55ZM53.1,3.47l-.47-.3-.51.22.14-.53-.37-.42.56-.04.28-.47.2.51.54.13-.42.35.05.55ZM52.4,3.9l-.43.35.05.55-.46-.29-.51.22.13-.54-.36-.42.55-.03.29-.48.2.52.54.12ZM50.74,2.62l.03.55-.45-.31-.52.19.16-.53-.35-.42.55-.02.3-.46.19.52.53.14-.44.34ZM50.04,4.5l.24.5.54.09-.4.38.08.55-.48-.27-.5.25.11-.55-.39-.39.55-.07.25-.49ZM49.72,6.49l-.4.39.11.55-.5-.25-.48.26.08-.55-.4-.38.55-.08.24-.5.25.49.55.07ZM47.12,6.65l-.38.41.12.54-.5-.24-.48.29.07-.55-.42-.37.55-.11.22-.5.27.48.55.05ZM45.5,5.42l-.2.25.16.53-.48-.17-.04-.02-.45.31.02-.55-.44-.33.53-.15.19-.52.3.46h.55s-.14.19-.14.19ZM44.35,6.71l-.34.43h0s.16.53.16.53l-.45-.17-.07-.03-.45.32.02-.55-.44-.34.54-.14.18-.53.3.47h.55ZM42.98,8.36l-.34.44.16.52-.49-.18h-.03s-.45.3-.45.3l.02-.55-.44-.33.53-.15.19-.52.3.46h.55ZM41.43,10.16h.13l-.35.43.16.53-.52-.2-.16.1v.02s-.3.19-.3.19l.04-.55-.44-.34.54-.14.18-.52.3.46.42.02ZM41.15,8.24l-.51-.19-.46.31.03-.55-.44-.33.53-.15.18-.52.31.46h.55s-.35.44-.35.44l.16.53ZM39.79,11.93h.12s.44-.03.44-.03l-.32.46.19.52-.53-.17-.43.34v-.36s-.01-.19-.01-.19l-.46-.31.52-.17.15-.54.33.45ZM39.62,9.85l-.53-.16-.43.36-.02-.56-.46-.29.51-.19.14-.54.34.44.55-.04-.3.46.2.52ZM40.51,15.8l-.52-.17-.44.33v-.55l-.45-.32.53-.17.16-.52.32.45h.55s-.33.43-.33.43l.18.52ZM42.07,14.07l-.52-.18-.45.32.02-.55-.44-.33.53-.16.17-.52.31.46h.55l-.33.44.16.52ZM43.72,15.37l-.52-.19-.45.32v-.55s-.43-.33-.43-.33l.53-.15.17-.52.32.45h.55s-.34.44-.34.44l.17.53ZM44.85,13.62l-.52-.2-.45.31.03-.55-.44-.34.54-.14.18-.52.3.47h.56s-.35.44-.35.44l.15.53ZM46.49,14.84l-.52-.19-.45.31.02-.55-.44-.34.54-.14.18-.52.3.46h.55s-.34.44-.34.44l.16.53ZM46.97,13.06l-.46.3.04-.55-.43-.35.54-.13.2-.52.29.48.55.03-.36.42.14.53-.51-.21ZM49.34,12.7l-.48.26.08-.54-.4-.38.55-.09.24-.5.25.49.55.08-.39.39.1.54-.5-.25ZM51.27,14.03l-.51-.23-.47.28.06-.55-.42-.36.54-.11.22-.51.27.48.55.05-.37.41.13.54ZM52.47,12.31l.08.54-.49-.26-.49.24.1-.54-.38-.39.55-.07.25-.49.23.5.55.09-.4.38ZM54.06,13.35l.09.55-.49-.27-.49.25.1-.55-.38-.39.54-.07.26-.49.23.5.55.09-.41.38ZM57.77,12.72v.71s-.34-.55-.98-1.09c-.36-.29-.82-.58-1.42-.81-.27-.08-.55-.15-.85-.18l-.06-.73s.24.07.6.2h0s.1.03.25.09c.96.36,2.37,1.01,2.46,1.81ZM57.33,9.54v.77s-1.13-1.9-3.12-2.07v-.11s-.05-.6-.05-.6c0,0,2.65.71,3.17,2.01ZM57.02,6.22v.76s-1.13-1.88-3.11-2.07l-.06-.71c.2.06,2.67.76,3.17,2.02ZM49.65,3.52l-.39.39.1.54-.49-.25-.49.26.09-.54-.4-.38.54-.09.24-.5.25.49.55.08ZM47.16,2.09l.21-.51.28.48.55.05-.37.4.04.17.08.37-.29-.13-.21-.1-.47.29.06-.55-.42-.36.54-.11ZM45.79,3.74l.19-.52.29.47.55.02-.35.43.03.12.12.41-.35-.14-.17-.07-.46.31.04-.55-.43-.35.54-.13ZM44.1,2.51l.21-.51.28.47.55.04-.36.41.13.54-.51-.22-.46.3.05-.56-.43-.35.54-.12ZM42.96,4.08l.18-.52.31.46.55.02-.35.43.16.53-.51-.2-.46.32.03-.56-.44-.33.53-.15ZM42.73,5.61l-.33.45.18.52-.52-.18-.45.33v-.55s-.44-.32-.44-.32l.53-.16.16-.53.32.45h.55ZM41.09,3.09l.17-.53.31.46h.56l-.34.44.17.52-.52-.18-.45.32.02-.55-.45-.32.53-.16ZM39.72,4.77l.16-.52.32.45h.55s-.33.43-.33.43l.18.53-.52-.18-.45.33v-.55s-.44-.32-.44-.32l.53-.17ZM39.33,6.37l-.31.46.22.52-.54-.15-.42.36-.03-.55-.47-.29.52-.2.13-.54.34.43.56-.04ZM37.67,3.38l.36.42.55-.06-.29.47.22.51-.54-.13-.41.37-.04-.55-.48-.28.51-.21.12-.54Z"/>
    <path class="cls-1" d="M32.65,12.96h0s0,.05.01.12c0,0,0,0,0,0h0c.08.64.51,3.89,1.11,5.49.67,1.77,1.3,5.03,1.44,6.61.14,1.58-.06,3.96-.06,3.96,0,0-1.88,1.21-2.12,2.88l1.21.33s.7-.41.97-.99c.27-.58.67-1.41.7-1.58.03-.17.45-3.64-.42-7.65-.88-4.02-1.92-5.62-1.94-9.02,0,0,.48,2.62,2.08,5.55,0,.06.74,8.79.91,10.79,0,0-1.52,1.82-1.42,4.27l.92.48.79-.44.15-.42s.2,2.33.24,2.52c0,0,.92.82,1.99.71l-1.02-9.34s.52-4.12-.77-6.53c0,0-.52-6.53-.82-9.59-.3-3.06-.83-7.65-.83-7.65,0,0,.42-.05.26-.53,0,0,.59-1.23.39-1.74-.18-.48-.79-1.07-1.47-1.13v-.02c-.82-.23-1.43.71-1.67,1.14-.24.42.2,1.11.42,1.47.15.25.34.67.45.92,0,0,0,0,0,0,0,0-1.88,5.95-1.48,9.4ZM34.31,12.83h0s-.59-4.34.09-6.11c0,0,.79,8.05.89,9.08.04.01-.69-1.41-.99-2.97ZM34.21,1.12c.06-.17.42-.32.64-.4.05.06.1.16.09.29-.03.21.11.2.11.2,0,0,.15.3.08.5-.08.2-.29.27-.29.27h0c-.73.18-.71-.64-.62-.86ZM34.63,2.82c.01-.06.17-.12.27-.16v.05s.29-.17.32.03c.03.2-.26.23-.36.23-.21-.05-.24-.06-.23-.15Z"/>
    <path class="cls-1" d="M38.47,17.2h.01s0-.07,0-.11l-.02.11Z"/>
    <path class="cls-1" d="M72.97,6.75l-.02-.7h-.01c0,.23.02.45.03.7Z"/>
    <path class="cls-1" d="M58.52,24.29s-.01-.01-.01-.02h-.01l.02.02Z"/>
    <path class="cls-1" d="M19.57,34.5c1.16.39,1.73.95,1.73,1.68,0,.9-.57,1.85-1.73,2.85-3.1,2.67-4.68,4.04-4.72,4.11.07.21.18.38.34.51.16.14.34.21.54.21.23,0,.6-.02,1.12-.04.52-.02.92-.03,1.19-.03,1.22,0,2.14.16,2.75.47.84.43,1.26,1.2,1.26,2.31,0,1.43-.74,2.59-2.21,3.47-1.24.75-2.63,1.12-4.14,1.12-1,0-1.92-.19-2.75-.58-1.09-.49-1.64-1.17-1.64-2.03,0-.64.48-1.85,1.43-3.64.95-1.79,1.89-3.55,2.82-5.27,1.04-1.97,1.64-3.38,1.8-4.24-.07-.21-.17-.37-.32-.5-.15-.12-.31-.18-.49-.18-.14,0-.72.35-1.75,1.07-1.03.71-1.62,1.16-1.77,1.34-.15.18-.72,1.39-1.72,3.63-1.2,2.65-2.11,4.74-2.75,6.26-.95,2.24-1.42,3.46-1.42,3.66,0,.84.59,1.52,1.8,2.04.9.39,1.85.58,2.85.58,2.88,0,5.86-.68,8.94-2.04,3.78-1.67,5.67-3.76,5.67-6.25,0-1.43-.86-2.46-2.58-3.09-1.18-.43-2.62-.65-4.32-.65,1.7-1.17,2.95-2.14,3.74-2.88,1.47-1.41,2.21-2.69,2.21-3.84,0-1.59-.87-2.77-2.62-3.54-1.27-.56-2.81-.85-4.62-.85-3.15,0-6.27.51-9.38,1.53-2.78.91-5.66,2.26-8.63,4.05L0,36.18c.18.63.66.95,1.43.95.2,0,.38-.08.54-.24s.31-.3.44-.44c.14-.14.57-.34,1.29-.61.37-.14.81-.29,1.33-.44,3.1-1,6.32-1.5,9.65-1.5,2.1,0,3.74.2,4.89.6Z"/>
    <path class="cls-1" d="M28.31,52.68c.51.37,1.08.55,1.72.55,1.22,0,2.56-.57,4.02-1.7,1.46-1.13,2.33-2.27,2.61-3.43.29-1.16.43-2.34.43-3.57,0-.42-.28-.98-.82-1.69-.55-.71-1.01-1.07-1.4-1.07-.34,0-.73.15-1.15.44-.42.29-.69.6-.82.93-.67.16-1.52.76-2.54,1.8-.8.82-1.48,1.64-2.02,2.46-.26.41-.47.99-.65,1.75-.17.77-.25,1.43-.25,1.97,0,.62.29,1.14.87,1.56ZM31.74,47.66c.48-1.12.96-1.97,1.44-2.55.33,1.04.91,1.92,1.75,2.65-.49,1.17-1.1,2.1-1.81,2.79-.54.53-1.08.79-1.61.79-.18,0-.31-.1-.38-.3-.08-.2-.11-.42-.11-.66,0-.69.24-1.59.72-2.72Z"/>
    <path class="cls-1" d="M47.26,47.02c0-.53-.11-.91-.32-1.16-.21-.25-.31-.48-.31-.7,0-.31.12-.69.36-1.15.23-.45.35-.72.35-.82,0-.27-.12-.63-.37-1.06-.24-.44-.49-.66-.72-.66-.09,0-.29.09-.6.27-.15.1-.35.22-.61.39-.58.34-.96.69-1.14,1.02-.19.34-.28.86-.28,1.55,0,.25.02.48.06.68.03.2.09.4.16.6-.05.08-.38.57-.98,1.48-.24.36-.39.56-.44.6l-.11-.16c.02-.09.1-.47.23-1.14.14-.66.21-1.22.21-1.68,0-.4-.05-.76-.14-1.08-.09-.32-.29-.48-.6-.48-.17,0-.37.07-.6.22-.24.15-.41.22-.52.22-.57.09-1.05.22-1.45.38-.6.26-.9.6-.9,1.04,0,.22.08.37.24.45.17.08.37.13.6.13h.47l.03,1.23c0,.34-.03.72-.09,1.12-.05.4-.13.74-.23,1.02-.1.28-.39.72-.89,1.3-.14.18-.37.44-.68.77,0,.27.21.63.63,1.09.42.46.77.68,1.06.68.93,0,1.89-.81,2.88-2.43.51-.86,1.19-2.03,2.05-3.53.12.22.26.41.42.56.15.16.31.24.48.24.27,0,.63-.11,1.08-.32.45-.21.67-.43.67-.67Z"/>
    <path class="cls-1" d="M55.73,35.89c.15-.23.22-.42.22-.54,0-.2-.09-.43-.27-.69-.18-.25-.37-.38-.57-.38-.1,0-.41.1-.95.3-.54.2-.86.34-.97.41-.58.42-1.36,1.72-2.32,3.91-.86,1.93-1.65,4.06-2.38,6.37-.73,2.32-1.1,3.88-1.1,4.7,0,.7.24,1.44.7,2.23.47.8,1.01,1.19,1.63,1.19.53,0,1.1-.23,1.72-.68.33-.24.81-.62,1.45-1.15,1.17-.8,2.02-1.65,2.57-2.54.64-1.02.96-2.19.96-3.5,0-1.88-.97-2.82-2.9-2.82-.42,0-.83.1-1.23.3.47-1.22,1-2.42,1.57-3.61.58-1.18,1.2-2.35,1.87-3.5ZM52.59,45.19c.42,0,.74.17.96.51.22.33.33.71.33,1.13,0,.89-.19,1.75-.55,2.57-.46,1.02-1.08,1.53-1.86,1.53-.4,0-.65-.17-.75-.5-.1-.34-.15-.76-.15-1.28,0-.87.13-1.68.41-2.43.38-1.02.92-1.53,1.61-1.53Z"/>
    <path class="cls-1" d="M66.56,44.53c0-.42-.27-.98-.82-1.69-.54-.71-1.01-1.07-1.39-1.07-.35,0-.73.15-1.15.44-.42.29-.69.6-.82.93-.68.16-1.52.76-2.54,1.8-.81.82-1.48,1.64-2.03,2.46-.25.41-.47.99-.64,1.75-.17.77-.26,1.43-.26,1.97,0,.62.29,1.14.88,1.56.51.37,1.08.55,1.72.55,1.22,0,2.56-.57,4.02-1.7,1.46-1.13,2.33-2.27,2.61-3.43.28-1.16.42-2.34.42-3.57ZM62.6,50.55c-.55.53-1.09.79-1.62.79-.18,0-.31-.1-.38-.3s-.11-.42-.11-.66c0-.69.24-1.59.73-2.72.48-1.12.96-1.97,1.43-2.55.33,1.04.91,1.92,1.75,2.65-.49,1.17-1.09,2.1-1.8,2.79Z"/>
    <path class="cls-1" d="M73.45,45.3c-.84,1.06-1.67,2.1-2.49,3.14l.93-2.24s.24-.48.66-1.28c.31-.61.47-.99.47-1.15-.06-.15-.11-.29-.17-.44-.18-.16-.37-.3-.57-.4-.2-.1-.4-.15-.6-.15-.06,0-.36.14-.89.4-.54.26-.83.42-.86.48-.28.35-.79,1.75-1.54,4.22-.74,2.47-1.12,3.93-1.12,4.36,0,.1.13.26.37.51.25.25.42.4.51.45.54-.24,1.1-.47,1.67-.71,1.11-1.53,2.22-3.06,3.33-4.59,1-1.39,1.59-2.08,1.75-2.08l.11.19c-.02.16-.38,1.22-1.09,3.17-.26.71-.39,1.35-.39,1.92,0,.51.07.98.21,1.42.14.44.4.65.78.65.36,0,.95-.22,1.75-.67.8-.44,1.2-.81,1.2-1.1,0-.09-.08-.26-.24-.5-.17-.23-.25-.4-.25-.49,0-.62.18-1.57.55-2.84.36-1.28.54-2.26.54-2.95,0-.53-.07-.94-.22-1.24-.2-.4-.53-.6-1.01-.6-.78,0-1.91.84-3.39,2.52Z"/>
    <path class="cls-1" d="M85.57,52.08c0,.2.13.45.39.75.27.3.49.45.67.45.35,0,.79-.22,1.31-.67.53-.44.87-.84,1.02-1.19-.02-.12-.07-.35-.15-.67-.09-.32-.13-.57-.13-.75,0-.44.18-1.55.55-3.33.16-.81.25-1.47.25-2,0-.29-.09-.63-.25-1.01-.16-.38-.37-.58-.6-.58-.64,0-1.37.59-2.19,1.75-.67,1.1-1.34,2.19-2,3.29-.71,1.16-1.24,1.75-1.58,1.75-.22,0-.33-.14-.33-.41.78-1.88,1.58-3.77,2.38-5.66-.18-.51-.31-.84-.38-.99-.22-.44-.44-.66-.66-.66-.16,0-.55.17-1.15.51-.6.34-.96.57-1.09.7-.38.4-.93,1.71-1.63,3.92-.7,2.22-1.05,3.64-1.05,4.28,0,.29.19.64.56,1.05.37.41.71.62,1,.62.14,0,.28-.03.42-.08.14-.06.32-.18.53-.36.46-.27.92-.55,1.37-.82.48-.35,1.05-.93,1.72-1.75.48-.62.95-1.24,1.43-1.86-.1.62-.19,1.25-.28,1.89-.09.64-.13,1.25-.13,1.83Z"/>
    <path class="cls-1" d="M97.51,49.18c0-.58-.18-1.21-.56-1.9-.37-.68-.79-1.42-1.27-2.2,0-.22.06-.45.17-.71.2.22.39.38.57.48.18.1.41.15.68.15.44,0,.74-.29.91-.88.11-.36.16-.83.16-1.39,0-.26-.14-.46-.41-.6-.27-.15-.55-.22-.82-.22-.71,0-1.68.52-2.91,1.57s-1.85,1.9-1.85,2.56c0,.29.32.91.96,1.86.64.94.96,1.97.96,3.06,0,.29-.11.44-.33.44-.29,0-.63-.33-1-.97-.37-.65-.74-.97-1.11-.97-.42,0-.86.3-1.32.9-.47.6-.7,1.12-.7,1.56,0,.47.32.83.96,1.06.43.17.94.25,1.53.25,1.26,0,2.43-.36,3.52-1.07,1.24-.8,1.86-1.79,1.86-2.98Z"/>
    <path class="cls-1" d="M10.5,58.59s-.09.02-.11.05c-.03.03-.05.06-.07.11-.02.05-.05.11-.07.18-.03.08-.07.15-.13.24-.05.07-.13.12-.25.15-.12.02-.28.03-.47.03-.15,0-.26-.02-.32-.05-.06-.03-.09-.08-.09-.16v-1.24c0-.15.04-.27.13-.35.08-.09.26-.13.52-.13.39,0,.67.12.82.35.11.17.2.3.25.4.06.09.13.14.2.14s.11-.01.12-.05c.01-.03.02-.07.02-.12v-.96c0-.07-.01-.11-.03-.13-.03-.02-.09-.04-.19-.04-.14,0-.34.02-.61.04-.26.03-.59.04-.98.04h-.9c-.33,0-.59-.01-.78-.03-.19-.02-.32-.03-.37-.03-.14,0-.21.06-.21.18,0,.08.03.13.09.14.07.01.17.03.3.05.12.02.21.06.25.12.05.06.07.16.07.28v3.88c0,.14-.03.24-.08.3-.05.05-.15.09-.3.11-.12.02-.2.04-.25.05-.05.02-.07.06-.07.12,0,.13.06.19.2.19.07,0,.2,0,.4-.04.19-.02.44-.04.75-.04s.58.02.78.04c.21.03.36.04.46.04.16,0,.24-.06.24-.19,0-.08-.03-.12-.1-.13-.06,0-.17-.02-.32-.04s-.26-.06-.32-.12-.09-.15-.09-.28v-1.81c0-.07.04-.11.12-.12h.1s.09-.02.13-.02h.12c.21,0,.36.03.45.09.1.06.18.16.25.31.06.12.1.22.13.31.03.08.1.13.19.13.11,0,.17-.06.17-.19,0-.1,0-.22-.01-.38-.01-.15-.01-.34-.01-.55,0-.19.01-.34.02-.45.01-.11.02-.18.02-.22,0-.06-.02-.11-.05-.14-.03-.04-.07-.06-.12-.06Z"/>
    <path class="cls-1" d="M16.05,62.11s-.09-.02-.14-.03-.09-.02-.13-.04c-.17-.08-.32-.31-.46-.69l-1.55-4.15c-.06-.15-.1-.24-.14-.28-.03-.04-.11-.06-.23-.06-.1,0-.18.02-.23.06-.05.03-.11.13-.17.27l-1.62,4.34c-.05.13-.1.24-.15.32-.06.08-.12.14-.2.17-.09.04-.17.07-.24.09-.07.02-.1.08-.1.18,0,.11.06.16.19.16.03,0,.1,0,.2-.03s.26-.03.47-.03c.27,0,.48.01.62.03.15.02.23.03.26.03.13,0,.2-.06.2-.17,0-.09-.04-.15-.12-.17-.08-.02-.19-.05-.32-.1-.14-.05-.23-.1-.27-.17-.05-.05-.07-.14-.07-.25,0-.14.06-.4.19-.78.02-.06.04-.1.06-.13.02-.03.06-.06.11-.08.06-.01.13-.02.23-.03h.41c.31,0,.53.01.64.02.12.02.2.07.23.17l.33.95c.02.06.03.12.03.16,0,.08-.03.13-.08.15-.06.02-.12.04-.18.05-.06.01-.12.03-.18.05-.05.03-.08.08-.08.16,0,.11.08.17.23.17.12,0,.28,0,.46-.04.19-.02.41-.04.66-.04.27,0,.49,0,.66.03s.28.03.36.03c.09,0,.15-.01.2-.03.04-.02.06-.06.06-.12,0-.05-.01-.09-.04-.12-.03-.02-.06-.04-.1-.05ZM13.36,60.17h-.97c-.06,0-.09-.02-.09-.05,0,0,0-.02.02-.06l.48-1.4c.02-.07.04-.1.07-.1.02,0,.04.03.06.09l.51,1.37s.01.05.01.09-.03.06-.09.06Z"/>
    <path class="cls-1" d="M22.95,62.11c-.06-.01-.14-.02-.25-.04-.11,0-.18-.05-.23-.12-.04-.07-.07-.16-.08-.29l-.08-3.59v-.12c0-.16.01-.29.04-.38.03-.09.1-.15.21-.18.04-.01.09-.02.14-.02s.09-.01.13-.01c.04-.01.07-.02.1-.04.03-.02.04-.06.04-.1,0-.14-.08-.21-.24-.21-.08,0-.17.01-.28.02s-.24.02-.4.02c-.14,0-.26,0-.36-.01h-.27c-.11,0-.2.01-.25.03-.06.02-.1.06-.13.13l-1.14,3.03c-.03.09-.06.13-.1.13-.02,0-.05-.03-.07-.11l-1.07-3.05c-.04-.11-.14-.16-.29-.16-.08,0-.17,0-.29.01-.11.01-.23.02-.38.02-.21,0-.38,0-.51-.03-.13-.01-.23-.02-.28-.02-.12,0-.18.07-.18.19,0,.05,0,.09.03.11.02.02.05.03.09.04.03,0,.08.01.13.01.04,0,.1.02.15.04.11.04.18.11.2.21.02.1.03.25.03.45v.12c0,.06,0,.11-.01.17l-.16,3.12c-.01.11-.02.2-.03.27-.02.08-.03.13-.06.18-.02.04-.05.07-.1.09-.05.02-.1.04-.18.05-.09.03-.17.05-.21.06-.05.01-.07.06-.07.13,0,.11.07.17.21.17.05,0,.13-.01.25-.03.11-.02.26-.03.45-.03.17,0,.31,0,.42.03.11.02.2.03.26.03.16,0,.24-.07.24-.19,0-.05-.02-.08-.05-.1-.03-.02-.06-.04-.11-.04-.04-.01-.1-.01-.15-.02-.06,0-.12-.02-.18-.04-.12-.05-.19-.14-.23-.29-.04-.15-.05-.37-.05-.66v-.62c0-.11,0-.21.01-.3l.09-1.7c0-.06.01-.09.02-.09.03,0,.05.02.07.06l1.27,3.55c.04.11.08.19.12.25.04.05.1.08.19.08.08,0,.13-.03.18-.08.04-.06.08-.15.13-.26l1.25-3.35c.02-.06.04-.09.06-.09s.04.03.04.1v3.01c.01.13-.01.23-.05.29-.05.07-.13.11-.24.13-.1.02-.18.04-.24.05-.05,0-.08.06-.08.14,0,.11.06.17.19.17.04,0,.16-.02.34-.04.19-.02.45-.03.78-.03s.6.01.78.03c.18.02.29.04.33.04.13,0,.19-.06.19-.17,0-.09-.03-.14-.08-.15Z"/>
    <path class="cls-1" d="M26.02,57.47c.06-.05.16-.09.3-.1.1-.02.17-.03.2-.05.04,0,.06-.05.06-.12,0-.12-.07-.19-.19-.19-.04,0-.15.01-.33.03s-.43.03-.77.03-.58,0-.76-.03-.29-.03-.33-.03c-.12,0-.18.06-.18.18,0,.08.02.13.08.15.06.01.14.03.25.04.11.03.18.07.23.13.04.06.06.15.06.28v3.89c0,.15-.02.25-.07.3s-.14.09-.27.11c-.11.02-.18.03-.22.05-.04.02-.06.06-.06.12,0,.13.06.19.18.19.05,0,.16,0,.33-.03.18-.03.43-.04.76-.04s.59.01.77.04c.17.02.28.03.33.03.12,0,.19-.07.19-.2,0-.07-.03-.11-.08-.12-.05,0-.13-.02-.24-.04s-.2-.06-.25-.12-.07-.16-.07-.28v-3.91c0-.15.03-.25.08-.31Z"/>
    <path class="cls-1" d="M31.52,61.03s-.1.02-.14.07c-.04.04-.08.1-.12.17-.04.06-.09.14-.14.22-.05.09-.11.17-.19.26-.1.1-.22.19-.38.26-.16.06-.31.1-.46.1-.23,0-.38-.05-.45-.16-.07-.1-.1-.29-.1-.56v-3.61c0-.15.03-.25.09-.31.07-.05.18-.09.34-.1.11-.02.18-.03.22-.05.04,0,.06-.05.06-.12,0-.12-.07-.19-.21-.19-.06,0-.18.01-.37.03s-.45.03-.78.03-.59,0-.77-.03c-.18-.02-.29-.03-.32-.03-.13,0-.19.06-.19.18,0,.08.03.12.09.14.06.01.14.03.25.05.11.03.19.07.23.13.04.06.06.15.06.28v3.89c0,.15-.03.25-.08.3s-.14.09-.27.11c-.1.02-.17.03-.22.05-.04.02-.06.06-.06.12,0,.13.06.19.19.19.04,0,.15,0,.33-.03.17-.03.43-.04.76-.04.63,0,1.14.02,1.53.05.39.02.66.04.81.04.13,0,.21-.02.24-.06.03-.04.05-.11.07-.21l.1-.72c.02-.15.03-.25.03-.28,0-.06-.02-.1-.05-.13-.03-.02-.06-.04-.1-.04Z"/>
    <path class="cls-1" d="M37.23,57.02c-.05,0-.13.01-.23.02-.11.02-.25.03-.41.03-.17,0-.32,0-.44-.03-.12-.01-.22-.02-.31-.02s-.16.02-.19.04c-.04.03-.06.07-.06.13,0,.08.03.13.09.15.06.03.12.05.2.07.07.02.13.05.19.09.06.04.09.1.09.19,0,.05-.01.11-.04.2-.03.08-.06.17-.12.26l-.65,1.12s-.07.08-.1.08-.06-.03-.09-.08l-.92-1.47c-.05-.09-.07-.16-.07-.21,0-.06.02-.11.07-.13.06-.02.11-.04.17-.06s.11-.04.17-.06c.05-.03.07-.08.07-.16,0-.11-.06-.17-.2-.17-.05,0-.18.01-.38.03s-.49.03-.85.03c-.33,0-.58,0-.75-.03s-.27-.03-.31-.03-.08.02-.11.05c-.04.03-.05.07-.05.13,0,.09.03.14.09.16.05.02.13.05.23.09.1.05.18.11.23.19.06.08.12.17.18.27l1.31,2.14s.04.09.06.14c.01.06.02.11.02.16v1.34c0,.15-.03.25-.08.3-.04.05-.13.09-.26.11-.11.02-.18.03-.22.05-.04.02-.06.06-.06.12,0,.13.06.19.19.19.05,0,.16,0,.34-.03.18-.03.43-.04.75-.04s.59.01.76.04c.18.02.29.03.34.03.12,0,.18-.07.18-.2,0-.07-.02-.11-.08-.12-.05,0-.13-.02-.24-.04-.12-.02-.2-.06-.24-.12-.05-.06-.07-.16-.07-.28v-1.62c0-.11.02-.2.07-.27l.97-1.58c.27-.44.47-.69.61-.75.06-.03.11-.05.15-.07.04-.01.08-.02.11-.04.03-.01.06-.03.08-.06,0-.02.02-.06.02-.11,0-.11-.07-.17-.21-.17Z"/>
    <path class="cls-1" d="M44.59,57.01c-.14,0-.34.02-.6.04-.26.03-.59.04-.98.04h-.9c-.33,0-.6-.01-.79-.03-.19-.02-.31-.03-.36-.03-.15,0-.22.06-.22.18,0,.08.03.13.1.14.06.01.16.03.29.05s.21.06.26.12c.04.06.06.16.06.28v3.88c0,.14-.02.24-.07.3-.06.05-.16.09-.31.11-.11.02-.2.04-.25.05-.04.02-.07.06-.07.12,0,.13.07.19.21.19.07,0,.2,0,.39-.04.19-.02.45-.04.76-.04s.57.02.78.04c.2.03.35.04.45.04.16,0,.24-.06.24-.19,0-.08-.03-.12-.09-.13-.07,0-.18-.02-.33-.04-.15-.02-.25-.06-.31-.12-.07-.06-.1-.15-.1-.28v-1.81c0-.07.04-.11.12-.12h.11s.09-.02.13-.02h.11c.21,0,.36.03.46.09.09.06.17.16.25.31.05.12.1.22.13.31.03.08.09.13.19.13.11,0,.17-.06.17-.19,0-.1-.01-.22-.01-.38-.01-.15-.01-.34-.01-.55,0-.19,0-.34.02-.45,0-.11,0-.18,0-.22,0-.06,0-.11-.04-.14-.04-.04-.08-.06-.12-.06-.05,0-.09.02-.12.05s-.05.06-.07.11c-.02.05-.04.11-.07.18-.02.08-.06.15-.12.24-.06.07-.14.12-.26.15-.11.02-.27.03-.47.03-.15,0-.25-.02-.31-.05-.07-.03-.1-.08-.1-.16v-1.24c0-.15.05-.27.13-.35.09-.09.26-.13.53-.13.39,0,.66.12.82.35.11.17.19.3.25.4.05.09.12.14.2.14.06,0,.1-.01.12-.05,0-.03.02-.07.02-.12v-.96c0-.07-.02-.11-.04-.13-.02-.02-.09-.04-.19-.04Z"/>
    <path class="cls-1" d="M50.72,57.68c-.26-.25-.57-.46-.91-.6-.34-.15-.71-.22-1.1-.22s-.78.07-1.13.22c-.35.14-.66.35-.92.6s-.46.56-.61.91c-.15.34-.23.72-.23,1.13s.08.78.23,1.13c.15.35.35.66.61.91.26.26.56.46.91.61.34.14.7.22,1.1.22s.78-.08,1.13-.22c.35-.15.66-.35.92-.61.26-.25.46-.56.61-.91s.23-.72.23-1.13-.08-.79-.23-1.13c-.15-.35-.35-.66-.61-.91ZM50.08,60.93c-.07.28-.17.52-.3.72-.12.19-.27.34-.45.44-.18.1-.37.15-.57.15-.21,0-.42-.06-.61-.18s-.36-.3-.5-.54-.26-.53-.34-.87c-.08-.35-.12-.73-.12-1.17,0-.37.04-.7.11-.98.07-.29.17-.53.3-.73.12-.19.27-.34.44-.44.18-.1.36-.15.57-.15s.41.06.61.19c.19.12.36.3.5.54s.26.52.34.87c.09.34.13.72.13,1.15,0,.38-.04.71-.11,1Z"/>
    <path class="cls-1" d="M57.89,57.01c-.09,0-.18.01-.29.02-.12.01-.24.02-.37.02-.16,0-.3-.01-.42-.02-.11-.01-.21-.02-.28-.02-.18,0-.26.06-.26.18,0,.07.02.11.06.13.04.03.09.04.15.05.06,0,.12,0,.18.02s.11.03.15.07c.09.1.15.3.17.62.03.32.04.74.04,1.28v1.06c0,.3-.01.55-.04.77-.02.21-.09.39-.2.54-.23.3-.59.45-1.09.45-.25,0-.45-.03-.6-.1-.15-.07-.28-.17-.37-.3-.09-.14-.15-.3-.18-.5-.04-.2-.05-.43-.05-.69v-2.81c0-.15.03-.25.08-.31.06-.05.16-.09.3-.1.1-.02.16-.03.2-.05.04,0,.05-.05.05-.12,0-.12-.06-.19-.18-.19-.05,0-.16.01-.32.03-.17.02-.41.03-.72.03-.33,0-.59,0-.76-.03-.18-.02-.29-.03-.33-.03-.13,0-.19.07-.19.19,0,.08.03.12.09.13.05.01.13.03.24.05.11.03.19.07.23.13.05.06.07.15.07.28v2.91c0,.27.01.51.04.72.03.2.11.38.25.55.19.22.43.37.73.47.3.1.68.15,1.13.15.41,0,.76-.06,1.05-.17s.51-.27.67-.49c.14-.2.22-.42.25-.67.02-.24.03-.54.03-.87v-1.03c0-.54.01-.97.03-1.28.02-.32.07-.53.17-.63.03-.04.09-.06.15-.07.07,0,.13,0,.19-.02.06,0,.11-.01.15-.04.04-.02.06-.06.06-.13s-.02-.11-.06-.14c-.04-.02-.1-.04-.2-.04Z"/>
    <path class="cls-1" d="M64.21,57.01c-.08,0-.15.01-.21.03-.05.01-.1.02-.13.02h-.1s-.13,0-.24,0-.19,0-.24,0h-.11s-.1-.01-.17-.02c-.07-.02-.15-.03-.24-.03-.16,0-.24.07-.24.19,0,.05.01.09.04.11.03.02.07.03.12.04.05,0,.11.01.17.01.07.01.13.03.21.06.11.04.18.13.22.26.03.13.05.33.05.59v1.82c0,.08-.03.12-.08.12-.02,0-.06-.02-.1-.08l-2.16-2.93c-.05-.07-.09-.11-.12-.13-.03-.02-.09-.03-.17-.03-.04,0-.11,0-.22.01-.11,0-.24.01-.41.01-.29,0-.5-.01-.65-.02-.14-.01-.23-.02-.25-.02-.13,0-.19.07-.19.19,0,.05.02.09.04.11.03.02.06.03.1.04.05,0,.09.01.14.01s.1,0,.14.03c.09.04.15.11.17.22.03.11.04.26.04.45v3.1c0,.27-.02.48-.05.61-.03.14-.11.23-.22.26-.06.02-.12.04-.17.04-.05.01-.1.01-.14.02-.04.01-.07.02-.09.04-.02.02-.03.05-.03.1,0,.12.08.19.22.19.06,0,.14-.01.25-.03s.26-.03.43-.03c.18,0,.33,0,.45.03.13.02.22.03.3.03.16,0,.25-.07.25-.19,0-.05-.02-.09-.05-.11-.03-.02-.07-.03-.13-.03-.05-.01-.11-.01-.17-.02-.07,0-.13-.02-.2-.05-.11-.04-.18-.13-.21-.27-.04-.13-.05-.33-.05-.59v-2.84c0-.08.01-.12.03-.12s.05.02.09.05l2.92,4.04c.07.11.14.19.2.26.06.06.14.1.23.1.17,0,.25-.14.25-.41v-3.98c0-.27.02-.48.05-.61.03-.14.1-.23.21-.26.07-.02.13-.04.19-.04.05-.01.1-.02.13-.02.04-.01.07-.03.08-.04.02-.02.03-.05.03-.1,0-.12-.07-.19-.21-.19Z"/>
    <path class="cls-1" d="M70.12,57.67c-.29-.25-.64-.44-1.05-.57-.41-.14-.88-.21-1.39-.21-.35,0-.66.02-.95.05-.29.03-.55.06-.76.11-.21.04-.37.1-.5.16-.12.06-.18.12-.18.18,0,.09.04.14.1.14s.12,0,.17-.01c.05-.01.1-.02.13-.02.19,0,.29.11.29.31v3.87c0,.15-.03.25-.08.3-.04.05-.13.09-.26.11-.11.02-.18.03-.22.05-.05.02-.07.06-.07.12,0,.13.06.19.19.19.08,0,.19,0,.35-.04.16-.02.36-.04.6-.04.15,0,.34.02.55.05.22.02.47.04.76.04.49,0,.94-.07,1.33-.22.4-.14.74-.33,1.02-.58.27-.25.48-.54.63-.88.15-.33.22-.69.22-1.08,0-.42-.08-.8-.23-1.14-.15-.35-.37-.65-.65-.89ZM69.49,60.7c-.1.3-.23.56-.4.76-.16.21-.35.37-.56.47-.22.11-.44.17-.68.17s-.41-.06-.48-.18c-.07-.12-.11-.32-.11-.61v-3.59c0-.08,0-.14.01-.2s.04-.12.09-.16c.04-.04.1-.07.19-.09.08-.02.19-.03.34-.03.26,0,.49.05.71.16.21.12.4.28.55.49.15.2.27.46.35.76.09.3.13.64.13,1.02s-.05.73-.14,1.03Z"/>
    <path class="cls-1" d="M76.59,62.11s-.09-.02-.13-.03c-.05-.01-.1-.02-.14-.04-.17-.08-.32-.31-.45-.69l-1.56-4.15c-.05-.15-.09-.24-.13-.28-.03-.04-.11-.06-.23-.06-.1,0-.18.02-.23.06-.06.03-.11.13-.17.27l-1.62,4.34c-.05.13-.11.24-.16.32s-.12.14-.19.17c-.1.04-.17.07-.24.09-.07.02-.11.08-.11.18,0,.11.07.16.2.16.03,0,.09,0,.19-.03.11-.02.27-.03.47-.03.28,0,.49.01.63.03s.23.03.25.03c.14,0,.21-.06.21-.17,0-.09-.04-.15-.12-.17-.08-.02-.19-.05-.32-.1-.14-.05-.24-.1-.28-.17-.04-.05-.06-.14-.06-.25,0-.14.06-.4.18-.78.02-.06.04-.1.07-.13.02-.03.06-.06.11-.08.05-.01.13-.02.23-.03h.4c.32,0,.53.01.65.02.11.02.19.07.22.17l.34.95c.02.06.03.12.03.16,0,.08-.03.13-.09.15-.05.02-.11.04-.17.05-.07.01-.13.03-.18.05-.05.03-.08.08-.08.16,0,.11.07.17.22.17.13,0,.28,0,.47-.04.19-.02.41-.04.66-.04.27,0,.49,0,.65.03.17.02.29.03.36.03.09,0,.16-.01.2-.03.04-.02.06-.06.06-.12,0-.05-.01-.09-.03-.12-.03-.02-.06-.04-.11-.05ZM73.9,60.17h-.97s-.08-.02-.08-.05c0,0,0-.02.02-.06l.47-1.4c.02-.07.05-.1.07-.1s.04.03.06.09l.52,1.37s.01.05.01.09-.03.06-.1.06Z"/>
    <path class="cls-1" d="M81.33,56.56c-.06,0-.09,0-.12.05-.03.03-.05.06-.07.1-.02.04-.04.08-.06.11-.02.03-.05.05-.09.05-.02.05-.11.08-.26.09-.15.01-.35.02-.59.02h-2.29s-.09.01-.13.01c-.06,0-.1-.01-.14-.03-.03-.01-.05-.05-.07-.12-.02,0-.03-.02-.04-.04-.01-.03-.02-.06-.03-.09-.01-.03-.03-.05-.05-.07-.02-.02-.05-.03-.08-.03-.08,0-.13.06-.15.16-.02.11-.05.24-.09.38-.07.35-.13.6-.18.78-.04.17-.07.29-.07.34,0,.1.05.14.14.14.08,0,.16-.05.21-.17.06-.12.17-.27.32-.45.1-.13.21-.24.32-.32.12-.09.25-.14.4-.14h.12s.06.03.08.07c.02.05.03.1.03.13v4.15c0,.15-.02.25-.07.3-.05.05-.14.09-.27.11-.1.02-.17.03-.22.05-.04.02-.06.06-.06.12,0,.13.06.19.19.19.04,0,.15,0,.33-.03.17-.03.43-.04.76-.04s.59.01.76.04c.18.02.29.03.33.03.13,0,.19-.07.19-.2,0-.07-.03-.11-.07-.12-.05,0-.13-.02-.24-.04-.12-.02-.2-.06-.25-.12s-.08-.16-.08-.28v-4.17s.02-.07.04-.12c.02-.04.05-.07.08-.07h.24c.17,0,.31.05.41.14.1.08.19.2.26.33.1.22.17.38.21.49.03.1.09.16.17.16.07,0,.12-.04.15-.11.02-.06.04-.16.06-.29.02-.31.04-.57.07-.78.03-.21.04-.38.04-.51,0-.03-.01-.07-.04-.12-.02-.05-.06-.08-.1-.08Z"/>
    <path class="cls-1" d="M84.33,57.47c.06-.05.16-.09.3-.1.1-.02.16-.03.2-.05.04,0,.05-.05.05-.12,0-.12-.06-.19-.18-.19-.04,0-.15.01-.33.03-.18.02-.43.03-.77.03s-.58,0-.76-.03-.29-.03-.33-.03c-.12,0-.19.06-.19.18,0,.08.03.13.09.15.06.01.14.03.25.04.11.03.18.07.23.13.04.06.06.15.06.28v3.89c0,.15-.03.25-.07.3-.05.05-.14.09-.27.11-.11.02-.18.03-.22.05-.04.02-.07.06-.07.12,0,.13.07.19.19.19.05,0,.16,0,.33-.03.18-.03.43-.04.76-.04s.59.01.77.04c.17.02.28.03.33.03.12,0,.18-.07.18-.2,0-.07-.02-.11-.07-.12-.05,0-.13-.02-.24-.04-.12-.02-.2-.06-.25-.12s-.07-.16-.07-.28v-3.91c0-.15.03-.25.08-.31Z"/>
    <path class="cls-1" d="M90.84,57.68c-.26-.25-.56-.46-.9-.6-.34-.15-.71-.22-1.1-.22s-.78.07-1.13.22c-.36.14-.66.35-.92.6s-.47.56-.62.91c-.15.34-.22.72-.22,1.13s.07.78.22,1.13c.15.35.36.66.62.91.26.26.56.46.9.61.34.14.71.22,1.1.22s.78-.08,1.13-.22c.36-.15.66-.35.92-.61.26-.25.47-.56.62-.91s.22-.72.22-1.13-.07-.79-.22-1.13c-.15-.35-.36-.66-.62-.91ZM90.21,60.93c-.07.28-.17.52-.3.72-.13.19-.28.34-.45.44-.18.1-.37.15-.57.15-.22,0-.42-.06-.61-.18s-.36-.3-.51-.54c-.14-.24-.25-.53-.33-.87-.08-.35-.12-.73-.12-1.17,0-.37.03-.7.1-.98.07-.29.17-.53.3-.73.13-.19.28-.34.45-.44.17-.1.36-.15.56-.15.22,0,.42.06.61.19.19.12.36.3.51.54.14.24.25.52.34.87.08.34.12.72.12,1.15,0,.38-.03.71-.1,1Z"/>
    <path class="cls-1" d="M97.96,57.01c-.08,0-.15.01-.21.03-.06.01-.1.02-.14.02h-.09c-.06,0-.14,0-.25,0-.1,0-.18,0-.24,0h-.1s-.1-.01-.17-.02c-.07-.02-.15-.03-.24-.03-.16,0-.24.07-.24.19,0,.05.01.09.04.11.03.02.07.03.12.04.05,0,.1.01.17.01.06.01.13.03.2.06.11.04.19.13.22.26.04.13.06.33.06.59v1.82c0,.08-.03.12-.08.12-.03,0-.06-.02-.1-.08l-2.16-2.93c-.05-.07-.09-.11-.13-.13-.03-.02-.08-.03-.16-.03-.04,0-.11,0-.22.01-.11,0-.25.01-.42.01-.28,0-.5-.01-.64-.02-.14-.01-.23-.02-.26-.02-.12,0-.18.07-.18.19,0,.05.01.09.04.11.02.02.06.03.1.04.04,0,.09.01.14.01s.09,0,.14.03c.09.04.15.11.17.22.02.11.03.26.03.45v3.1c0,.27-.01.48-.05.61-.03.14-.1.23-.21.26-.06.02-.12.04-.18.04-.05.01-.09.01-.13.02-.04.01-.07.02-.09.04-.02.02-.03.05-.03.1,0,.12.07.19.22.19.05,0,.14-.01.25-.03s.25-.03.43-.03.32,0,.45.03c.12.02.22.03.29.03.17,0,.26-.07.26-.19,0-.05-.02-.09-.05-.11-.04-.02-.08-.03-.13-.03-.05-.01-.11-.01-.18-.02-.06,0-.13-.02-.19-.05-.11-.04-.18-.13-.22-.27-.03-.13-.04-.33-.04-.59v-2.84c0-.08.01-.12.02-.12.03,0,.06.02.09.05l2.92,4.04c.07.11.14.19.2.26.07.06.14.1.23.1.17,0,.26-.14.26-.41v-3.98c0-.27,0-.48.05-.61.03-.14.1-.23.21-.26.07-.02.13-.04.18-.04.06-.01.1-.02.14-.02.03-.01.06-.03.08-.04.02-.02.03-.05.03-.1,0-.12-.07-.19-.21-.19Z"/>
  </g>
</svg>